<mxfile host="Electron" modified="2023-06-10T13:16:32.713Z" agent="Mozilla/5.0 (Macintosh; Intel Mac OS X 10_15_7) AppleWebKit/537.36 (KHTML, like Gecko) draw.io/21.2.8 Chrome/112.0.5615.165 Electron/24.2.0 Safari/537.36" etag="WItA9LxCFCsfpq74xS4O" version="21.2.8" type="device">
  <diagram id="u886Hvmpbkis98s-bnif" name="Page-1">
    <mxGraphModel dx="1363" dy="2063" grid="1" gridSize="10" guides="1" tooltips="1" connect="1" arrows="1" fold="1" page="1" pageScale="1" pageWidth="850" pageHeight="1100" math="0" shadow="0">
      <root>
        <mxCell id="0" />
        <mxCell id="1" parent="0" />
        <mxCell id="HS7v9GgHMFlQY1rFjsYB-10" value="1&lt;br&gt;" style="edgeStyle=orthogonalEdgeStyle;rounded=0;orthogonalLoop=1;jettySize=auto;html=1;entryX=0.5;entryY=0;entryDx=0;entryDy=0;" parent="1" source="HS7v9GgHMFlQY1rFjsYB-1" target="HS7v9GgHMFlQY1rFjsYB-9" edge="1">
          <mxGeometry x="-0.5062" y="-10" relative="1" as="geometry">
            <mxPoint as="offset" />
          </mxGeometry>
        </mxCell>
        <mxCell id="HS7v9GgHMFlQY1rFjsYB-44" style="edgeStyle=orthogonalEdgeStyle;rounded=0;orthogonalLoop=1;jettySize=auto;html=1;exitX=1;exitY=0.5;exitDx=0;exitDy=0;entryX=0;entryY=0.5;entryDx=0;entryDy=0;endArrow=classic;endFill=1;" parent="1" source="HS7v9GgHMFlQY1rFjsYB-1" target="HS7v9GgHMFlQY1rFjsYB-43" edge="1">
          <mxGeometry relative="1" as="geometry" />
        </mxCell>
        <mxCell id="HS7v9GgHMFlQY1rFjsYB-57" value="1" style="edgeLabel;html=1;align=center;verticalAlign=middle;resizable=0;points=[];" parent="HS7v9GgHMFlQY1rFjsYB-44" vertex="1" connectable="0">
          <mxGeometry x="-0.4723" y="1" relative="1" as="geometry">
            <mxPoint as="offset" />
          </mxGeometry>
        </mxCell>
        <mxCell id="HS7v9GgHMFlQY1rFjsYB-66" style="edgeStyle=orthogonalEdgeStyle;rounded=0;orthogonalLoop=1;jettySize=auto;html=1;endArrow=classic;endFill=1;" parent="1" source="HS7v9GgHMFlQY1rFjsYB-1" target="HS7v9GgHMFlQY1rFjsYB-65" edge="1">
          <mxGeometry relative="1" as="geometry" />
        </mxCell>
        <mxCell id="HS7v9GgHMFlQY1rFjsYB-68" value="1" style="edgeLabel;html=1;align=center;verticalAlign=middle;resizable=0;points=[];" parent="HS7v9GgHMFlQY1rFjsYB-66" vertex="1" connectable="0">
          <mxGeometry x="-0.8684" relative="1" as="geometry">
            <mxPoint as="offset" />
          </mxGeometry>
        </mxCell>
        <mxCell id="HS7v9GgHMFlQY1rFjsYB-1" value="Пользователь" style="whiteSpace=wrap;html=1;align=center;" parent="1" vertex="1">
          <mxGeometry x="360" y="-900" width="100" height="40" as="geometry" />
        </mxCell>
        <mxCell id="HS7v9GgHMFlQY1rFjsYB-2" value="" style="line;strokeWidth=1;rotatable=0;dashed=0;labelPosition=right;align=left;verticalAlign=middle;spacingTop=0;spacingLeft=6;points=[];portConstraint=eastwest;direction=south;" parent="1" vertex="1">
          <mxGeometry x="405.5" y="-1020" width="10" height="120" as="geometry" />
        </mxCell>
        <mxCell id="HS7v9GgHMFlQY1rFjsYB-3" value="ID" style="ellipse;whiteSpace=wrap;html=1;align=center;fontStyle=4;" parent="1" vertex="1">
          <mxGeometry x="411" y="-940" width="39" height="30" as="geometry" />
        </mxCell>
        <mxCell id="HS7v9GgHMFlQY1rFjsYB-5" value="about" style="ellipse;whiteSpace=wrap;html=1;align=center;" parent="1" vertex="1">
          <mxGeometry x="411" y="-992.5" width="59.5" height="32.5" as="geometry" />
        </mxCell>
        <mxCell id="HS7v9GgHMFlQY1rFjsYB-8" value="name" style="ellipse;whiteSpace=wrap;html=1;align=center;" parent="1" vertex="1">
          <mxGeometry x="700" y="-970" width="51" height="40" as="geometry" />
        </mxCell>
        <mxCell id="HS7v9GgHMFlQY1rFjsYB-11" value="N" style="edgeStyle=orthogonalEdgeStyle;rounded=0;orthogonalLoop=1;jettySize=auto;html=1;" parent="1" source="HS7v9GgHMFlQY1rFjsYB-9" edge="1">
          <mxGeometry x="-0.4286" y="-11" relative="1" as="geometry">
            <mxPoint x="410.5" y="-700" as="targetPoint" />
            <mxPoint x="1" as="offset" />
          </mxGeometry>
        </mxCell>
        <mxCell id="HS7v9GgHMFlQY1rFjsYB-9" value="Сохраняет" style="shape=rhombus;perimeter=rhombusPerimeter;whiteSpace=wrap;html=1;align=center;" parent="1" vertex="1">
          <mxGeometry x="350.5" y="-810" width="120" height="40" as="geometry" />
        </mxCell>
        <mxCell id="HS7v9GgHMFlQY1rFjsYB-13" style="edgeStyle=orthogonalEdgeStyle;rounded=0;orthogonalLoop=1;jettySize=auto;html=1;endArrow=none;endFill=0;" parent="1" source="HS7v9GgHMFlQY1rFjsYB-12" edge="1">
          <mxGeometry relative="1" as="geometry">
            <mxPoint x="680" y="-680" as="targetPoint" />
          </mxGeometry>
        </mxCell>
        <mxCell id="HS7v9GgHMFlQY1rFjsYB-17" style="edgeStyle=orthogonalEdgeStyle;rounded=0;orthogonalLoop=1;jettySize=auto;html=1;endArrow=classic;endFill=1;" parent="1" source="HS7v9GgHMFlQY1rFjsYB-12" edge="1">
          <mxGeometry relative="1" as="geometry">
            <mxPoint x="300" y="-600" as="targetPoint" />
          </mxGeometry>
        </mxCell>
        <mxCell id="HS7v9GgHMFlQY1rFjsYB-64" value="1" style="edgeLabel;html=1;align=center;verticalAlign=middle;resizable=0;points=[];" parent="HS7v9GgHMFlQY1rFjsYB-17" vertex="1" connectable="0">
          <mxGeometry x="-0.8257" relative="1" as="geometry">
            <mxPoint as="offset" />
          </mxGeometry>
        </mxCell>
        <mxCell id="HS7v9GgHMFlQY1rFjsYB-12" value="Запись" style="whiteSpace=wrap;html=1;align=center;" parent="1" vertex="1">
          <mxGeometry x="360" y="-700" width="100" height="40" as="geometry" />
        </mxCell>
        <mxCell id="HS7v9GgHMFlQY1rFjsYB-14" value="ID" style="ellipse;whiteSpace=wrap;html=1;align=center;fontStyle=4;" parent="1" vertex="1">
          <mxGeometry x="470" y="-710" width="39" height="30" as="geometry" />
        </mxCell>
        <mxCell id="HS7v9GgHMFlQY1rFjsYB-16" value="Name" style="ellipse;whiteSpace=wrap;html=1;align=center;" parent="1" vertex="1">
          <mxGeometry x="100" y="-400" width="61" height="40" as="geometry" />
        </mxCell>
        <mxCell id="HS7v9GgHMFlQY1rFjsYB-19" style="edgeStyle=orthogonalEdgeStyle;rounded=0;orthogonalLoop=1;jettySize=auto;html=1;endArrow=classic;endFill=1;" parent="1" source="HS7v9GgHMFlQY1rFjsYB-18" edge="1">
          <mxGeometry relative="1" as="geometry">
            <mxPoint x="300" y="-470" as="targetPoint" />
          </mxGeometry>
        </mxCell>
        <mxCell id="HS7v9GgHMFlQY1rFjsYB-41" value="1" style="edgeLabel;html=1;align=center;verticalAlign=middle;resizable=0;points=[];" parent="HS7v9GgHMFlQY1rFjsYB-19" vertex="1" connectable="0">
          <mxGeometry x="0.3344" y="1" relative="1" as="geometry">
            <mxPoint as="offset" />
          </mxGeometry>
        </mxCell>
        <mxCell id="HS7v9GgHMFlQY1rFjsYB-61" style="edgeStyle=orthogonalEdgeStyle;rounded=0;orthogonalLoop=1;jettySize=auto;html=1;entryX=1;entryY=0.5;entryDx=0;entryDy=0;endArrow=classic;endFill=1;" parent="1" source="HS7v9GgHMFlQY1rFjsYB-18" target="HS7v9GgHMFlQY1rFjsYB-23" edge="1">
          <mxGeometry relative="1" as="geometry">
            <Array as="points">
              <mxPoint x="210" y="-565" />
              <mxPoint x="210" y="-450" />
            </Array>
          </mxGeometry>
        </mxCell>
        <mxCell id="HS7v9GgHMFlQY1rFjsYB-62" value="N" style="edgeLabel;html=1;align=center;verticalAlign=middle;resizable=0;points=[];" parent="HS7v9GgHMFlQY1rFjsYB-61" vertex="1" connectable="0">
          <mxGeometry x="0.656" y="2" relative="1" as="geometry">
            <mxPoint x="4" y="13" as="offset" />
          </mxGeometry>
        </mxCell>
        <mxCell id="HS7v9GgHMFlQY1rFjsYB-18" value="Может содержать" style="shape=rhombus;perimeter=rhombusPerimeter;whiteSpace=wrap;html=1;align=center;" parent="1" vertex="1">
          <mxGeometry x="220" y="-600" width="160" height="70" as="geometry" />
        </mxCell>
        <mxCell id="HS7v9GgHMFlQY1rFjsYB-20" value="Проект" style="whiteSpace=wrap;html=1;align=center;" parent="1" vertex="1">
          <mxGeometry x="250.5" y="-470" width="100" height="40" as="geometry" />
        </mxCell>
        <mxCell id="HS7v9GgHMFlQY1rFjsYB-25" style="edgeStyle=orthogonalEdgeStyle;rounded=0;orthogonalLoop=1;jettySize=auto;html=1;endArrow=none;endFill=0;" parent="1" source="HS7v9GgHMFlQY1rFjsYB-23" edge="1">
          <mxGeometry relative="1" as="geometry">
            <mxPoint x="100" y="-280" as="targetPoint" />
          </mxGeometry>
        </mxCell>
        <mxCell id="HS7v9GgHMFlQY1rFjsYB-23" value="Тег" style="whiteSpace=wrap;html=1;align=center;" parent="1" vertex="1">
          <mxGeometry x="50" y="-470" width="100" height="40" as="geometry" />
        </mxCell>
        <mxCell id="HS7v9GgHMFlQY1rFjsYB-26" value="ID" style="ellipse;whiteSpace=wrap;html=1;align=center;fontStyle=4;" parent="1" vertex="1">
          <mxGeometry x="60" y="-420" width="39" height="30" as="geometry" />
        </mxCell>
        <mxCell id="HS7v9GgHMFlQY1rFjsYB-27" value="about" style="ellipse;whiteSpace=wrap;html=1;align=center;" parent="1" vertex="1">
          <mxGeometry x="38" y="-370" width="61" height="40" as="geometry" />
        </mxCell>
        <mxCell id="HS7v9GgHMFlQY1rFjsYB-28" value="color" style="ellipse;whiteSpace=wrap;html=1;align=center;" parent="1" vertex="1">
          <mxGeometry x="100" y="-340" width="61" height="40" as="geometry" />
        </mxCell>
        <mxCell id="HS7v9GgHMFlQY1rFjsYB-29" value="Name" style="ellipse;whiteSpace=wrap;html=1;align=center;" parent="1" vertex="1">
          <mxGeometry x="299" y="-400" width="61" height="40" as="geometry" />
        </mxCell>
        <mxCell id="HS7v9GgHMFlQY1rFjsYB-30" style="edgeStyle=orthogonalEdgeStyle;rounded=0;orthogonalLoop=1;jettySize=auto;html=1;endArrow=none;endFill=0;" parent="1" edge="1">
          <mxGeometry relative="1" as="geometry">
            <mxPoint x="299" y="-280" as="targetPoint" />
            <mxPoint x="299" y="-430" as="sourcePoint" />
          </mxGeometry>
        </mxCell>
        <mxCell id="HS7v9GgHMFlQY1rFjsYB-31" value="ID" style="ellipse;whiteSpace=wrap;html=1;align=center;fontStyle=4;" parent="1" vertex="1">
          <mxGeometry x="259" y="-420" width="39" height="30" as="geometry" />
        </mxCell>
        <mxCell id="HS7v9GgHMFlQY1rFjsYB-32" value="about" style="ellipse;whiteSpace=wrap;html=1;align=center;" parent="1" vertex="1">
          <mxGeometry x="237" y="-370" width="61" height="40" as="geometry" />
        </mxCell>
        <mxCell id="HS7v9GgHMFlQY1rFjsYB-33" value="color" style="ellipse;whiteSpace=wrap;html=1;align=center;" parent="1" vertex="1">
          <mxGeometry x="299" y="-340" width="61" height="40" as="geometry" />
        </mxCell>
        <mxCell id="HS7v9GgHMFlQY1rFjsYB-34" value="isPrivate" style="ellipse;whiteSpace=wrap;html=1;align=center;" parent="1" vertex="1">
          <mxGeometry x="238" y="-320" width="61" height="40" as="geometry" />
        </mxCell>
        <mxCell id="HS7v9GgHMFlQY1rFjsYB-36" value="description" style="ellipse;whiteSpace=wrap;html=1;align=center;" parent="1" vertex="1">
          <mxGeometry x="500" y="-680" width="61" height="40" as="geometry" />
        </mxCell>
        <mxCell id="HS7v9GgHMFlQY1rFjsYB-37" value="time_start" style="ellipse;whiteSpace=wrap;html=1;align=center;" parent="1" vertex="1">
          <mxGeometry x="550" y="-720" width="61" height="40" as="geometry" />
        </mxCell>
        <mxCell id="HS7v9GgHMFlQY1rFjsYB-38" value="time_end" style="ellipse;whiteSpace=wrap;html=1;align=center;" parent="1" vertex="1">
          <mxGeometry x="600" y="-680" width="61" height="40" as="geometry" />
        </mxCell>
        <mxCell id="HS7v9GgHMFlQY1rFjsYB-46" style="edgeStyle=orthogonalEdgeStyle;rounded=0;orthogonalLoop=1;jettySize=auto;html=1;endArrow=none;endFill=0;" parent="1" source="HS7v9GgHMFlQY1rFjsYB-42" edge="1">
          <mxGeometry relative="1" as="geometry">
            <mxPoint x="700" y="-1090" as="targetPoint" />
          </mxGeometry>
        </mxCell>
        <mxCell id="HS7v9GgHMFlQY1rFjsYB-52" style="edgeStyle=orthogonalEdgeStyle;rounded=0;orthogonalLoop=1;jettySize=auto;html=1;endArrow=none;endFill=0;entryX=0.5;entryY=0;entryDx=0;entryDy=0;" parent="1" source="HS7v9GgHMFlQY1rFjsYB-42" target="HS7v9GgHMFlQY1rFjsYB-53" edge="1">
          <mxGeometry relative="1" as="geometry">
            <mxPoint x="780" y="-570" as="targetPoint" />
            <Array as="points">
              <mxPoint x="780" y="-880" />
            </Array>
          </mxGeometry>
        </mxCell>
        <mxCell id="HS7v9GgHMFlQY1rFjsYB-55" value="1" style="edgeLabel;html=1;align=center;verticalAlign=middle;resizable=0;points=[];" parent="HS7v9GgHMFlQY1rFjsYB-52" vertex="1" connectable="0">
          <mxGeometry x="-0.9403" relative="1" as="geometry">
            <mxPoint as="offset" />
          </mxGeometry>
        </mxCell>
        <mxCell id="HS7v9GgHMFlQY1rFjsYB-42" value="Цель" style="whiteSpace=wrap;html=1;align=center;" parent="1" vertex="1">
          <mxGeometry x="650" y="-900" width="100" height="40" as="geometry" />
        </mxCell>
        <mxCell id="HS7v9GgHMFlQY1rFjsYB-45" style="edgeStyle=orthogonalEdgeStyle;rounded=0;orthogonalLoop=1;jettySize=auto;html=1;entryX=0;entryY=0.5;entryDx=0;entryDy=0;endArrow=classic;endFill=1;" parent="1" source="HS7v9GgHMFlQY1rFjsYB-43" target="HS7v9GgHMFlQY1rFjsYB-42" edge="1">
          <mxGeometry relative="1" as="geometry" />
        </mxCell>
        <mxCell id="HS7v9GgHMFlQY1rFjsYB-58" value="N" style="edgeLabel;html=1;align=center;verticalAlign=middle;resizable=0;points=[];" parent="HS7v9GgHMFlQY1rFjsYB-45" vertex="1" connectable="0">
          <mxGeometry x="0.1361" y="-2" relative="1" as="geometry">
            <mxPoint as="offset" />
          </mxGeometry>
        </mxCell>
        <mxCell id="HS7v9GgHMFlQY1rFjsYB-43" value="Ставит" style="shape=rhombus;perimeter=rhombusPerimeter;whiteSpace=wrap;html=1;align=center;" parent="1" vertex="1">
          <mxGeometry x="491" y="-900" width="120" height="40" as="geometry" />
        </mxCell>
        <mxCell id="HS7v9GgHMFlQY1rFjsYB-47" value="ID" style="ellipse;whiteSpace=wrap;html=1;align=center;fontStyle=4;" parent="1" vertex="1">
          <mxGeometry x="661" y="-940" width="39" height="30" as="geometry" />
        </mxCell>
        <mxCell id="HS7v9GgHMFlQY1rFjsYB-48" value="description" style="ellipse;whiteSpace=wrap;html=1;align=center;" parent="1" vertex="1">
          <mxGeometry x="639" y="-992.5" width="61" height="40" as="geometry" />
        </mxCell>
        <mxCell id="HS7v9GgHMFlQY1rFjsYB-49" value="time_start" style="ellipse;whiteSpace=wrap;html=1;align=center;" parent="1" vertex="1">
          <mxGeometry x="700" y="-1020" width="61" height="40" as="geometry" />
        </mxCell>
        <mxCell id="HS7v9GgHMFlQY1rFjsYB-50" value="time_end" style="ellipse;whiteSpace=wrap;html=1;align=center;" parent="1" vertex="1">
          <mxGeometry x="639" y="-1050" width="61" height="40" as="geometry" />
        </mxCell>
        <mxCell id="HS7v9GgHMFlQY1rFjsYB-51" value="hours_count" style="ellipse;whiteSpace=wrap;html=1;align=center;" parent="1" vertex="1">
          <mxGeometry x="700" y="-1090" width="70" height="50" as="geometry" />
        </mxCell>
        <mxCell id="HS7v9GgHMFlQY1rFjsYB-54" style="edgeStyle=orthogonalEdgeStyle;rounded=0;orthogonalLoop=1;jettySize=auto;html=1;entryX=1;entryY=0.5;entryDx=0;entryDy=0;endArrow=classic;endFill=1;" parent="1" source="HS7v9GgHMFlQY1rFjsYB-53" target="HS7v9GgHMFlQY1rFjsYB-20" edge="1">
          <mxGeometry relative="1" as="geometry" />
        </mxCell>
        <mxCell id="HS7v9GgHMFlQY1rFjsYB-56" value="1" style="edgeLabel;html=1;align=center;verticalAlign=middle;resizable=0;points=[];" parent="HS7v9GgHMFlQY1rFjsYB-54" vertex="1" connectable="0">
          <mxGeometry x="0.8653" relative="1" as="geometry">
            <mxPoint as="offset" />
          </mxGeometry>
        </mxCell>
        <mxCell id="HS7v9GgHMFlQY1rFjsYB-53" value="имеет" style="shape=rhombus;perimeter=rhombusPerimeter;whiteSpace=wrap;html=1;align=center;" parent="1" vertex="1">
          <mxGeometry x="720" y="-470" width="120" height="40" as="geometry" />
        </mxCell>
        <mxCell id="HS7v9GgHMFlQY1rFjsYB-59" value="name" style="ellipse;whiteSpace=wrap;html=1;align=center;" parent="1" vertex="1">
          <mxGeometry x="360" y="-970" width="51" height="40" as="geometry" />
        </mxCell>
        <mxCell id="HS7v9GgHMFlQY1rFjsYB-60" value="email" style="ellipse;whiteSpace=wrap;html=1;align=center;" parent="1" vertex="1">
          <mxGeometry x="350.5" y="-1010" width="59.5" height="32.5" as="geometry" />
        </mxCell>
        <mxCell id="HS7v9GgHMFlQY1rFjsYB-67" style="edgeStyle=orthogonalEdgeStyle;rounded=0;orthogonalLoop=1;jettySize=auto;html=1;entryX=0.594;entryY=0.02;entryDx=0;entryDy=0;entryPerimeter=0;endArrow=classic;endFill=1;" parent="1" source="HS7v9GgHMFlQY1rFjsYB-65" target="HS7v9GgHMFlQY1rFjsYB-23" edge="1">
          <mxGeometry relative="1" as="geometry" />
        </mxCell>
        <mxCell id="HS7v9GgHMFlQY1rFjsYB-69" value="N" style="edgeLabel;html=1;align=center;verticalAlign=middle;resizable=0;points=[];" parent="HS7v9GgHMFlQY1rFjsYB-67" vertex="1" connectable="0">
          <mxGeometry x="0.3058" y="2" relative="1" as="geometry">
            <mxPoint as="offset" />
          </mxGeometry>
        </mxCell>
        <mxCell id="HS7v9GgHMFlQY1rFjsYB-70" style="edgeStyle=orthogonalEdgeStyle;rounded=0;orthogonalLoop=1;jettySize=auto;html=1;endArrow=classic;endFill=1;" parent="1" source="HS7v9GgHMFlQY1rFjsYB-65" edge="1">
          <mxGeometry relative="1" as="geometry">
            <mxPoint x="280" y="-470" as="targetPoint" />
          </mxGeometry>
        </mxCell>
        <mxCell id="HS7v9GgHMFlQY1rFjsYB-71" value="M" style="edgeLabel;html=1;align=center;verticalAlign=middle;resizable=0;points=[];" parent="HS7v9GgHMFlQY1rFjsYB-70" vertex="1" connectable="0">
          <mxGeometry x="0.8139" relative="1" as="geometry">
            <mxPoint as="offset" />
          </mxGeometry>
        </mxCell>
        <mxCell id="HS7v9GgHMFlQY1rFjsYB-65" value="Создает" style="shape=rhombus;perimeter=rhombusPerimeter;whiteSpace=wrap;html=1;align=center;" parent="1" vertex="1">
          <mxGeometry x="50" y="-550" width="120" height="40" as="geometry" />
        </mxCell>
        <mxCell id="4zPmG9hKBFSTGuQuBERX-1" value="role" style="ellipse;whiteSpace=wrap;html=1;align=center;" vertex="1" parent="1">
          <mxGeometry x="410" y="-1030" width="59.5" height="32.5" as="geometry" />
        </mxCell>
      </root>
    </mxGraphModel>
  </diagram>
</mxfile>
